<svg xmlns="http://www.w3.org/2000/svg" viewBox="0 0 1390 912"><path d="M 1220,499 1219,500 1215,500 1214,501 1210,501 1209,502 1208,502 1206,504 1205,504 1202,507 1201,507 1200,508 1200,509 1197,512 1197,513 1195,515 1195,516 1194,517 1194,518 1193,519 1193,520 1192,521 1192,522 1191,523 1191,525 1190,526 1190,527 1189,528 1189,529 1188,530 1188,531 1187,532 1187,534 1186,535 1186,536 1184,538 1184,540 1182,542 1182,543 1181,544 1181,545 1178,548 1178,549 1174,553 1174,554 1172,556 1172,557 1170,559 1170,560 1169,561 1169,563 1168,564 1168,565 1167,566 1167,570 1166,571 1166,576 1167,577 1173,577 1174,578 1179,578 1180,579 1203,579 1204,578 1210,578 1211,577 1218,577 1219,576 1221,576 1222,575 1225,575 1226,574 1227,574 1228,573 1231,573 1232,572 1233,572 1234,571 1236,571 1237,570 1238,570 1239,569 1240,569 1241,568 1242,568 1243,567 1244,567 1246,565 1247,565 1255,557 1255,556 1256,555 1256,554 1257,553 1257,552 1258,551 1258,549 1259,548 1259,530 1258,529 1258,528 1257,527 1257,525 1256,524 1256,522 1255,521 1255,520 1253,518 1253,517 1251,515 1251,514 1242,505 1241,505 1239,503 1238,503 1237,502 1236,502 1235,501 1233,501 1232,500 1231,500 1230,499" fill="black" stroke="none"/><path d="M 0,0 0,579 22,579 23,578 35,578 36,577 44,577 45,576 48,576 49,575 52,575 53,574 55,574 56,573 61,573 62,572 65,572 66,571 71,571 72,572 74,572 75,573 77,573 78,574 80,574 81,575 84,575 85,576 87,576 88,577 91,577 92,578 94,578 95,579 102,579 103,578 126,578 127,577 130,577 131,578 137,578 138,577 166,577 167,578 168,577 169,577 170,578 171,577 183,577 184,578 187,578 188,577 197,577 198,576 202,576 203,575 206,575 207,574 209,574 210,573 213,573 214,572 218,572 219,571 230,571 231,572 234,572 235,573 238,573 239,574 241,574 242,575 247,575 248,576 250,576 251,577 254,577 255,578 261,578 262,579 279,579 280,578 283,578 284,577 287,577 288,576 290,576 291,575 294,575 295,574 296,574 297,573 299,573 300,572 302,572 303,571 306,571 307,570 308,570 309,569 316,569 317,570 321,570 322,571 323,571 324,572 325,572 326,573 327,573 328,574 329,574 330,575 333,575 334,576 335,576 336,577 348,577 349,576 357,576 358,577 361,577 362,576 451,576 452,577 465,577 466,578 467,577 468,578 470,578 471,577 472,578 487,578 488,579 490,579 491,578 493,578 494,577 498,577 499,576 501,576 502,575 505,575 506,574 507,574 508,573 511,573 512,572 515,572 516,571 519,571 520,570 526,570 527,571 532,571 533,572 537,572 538,573 546,573 547,574 551,574 552,575 560,575 561,576 566,576 567,577 572,577 573,578 580,578 581,579 594,579 595,578 604,578 605,577 612,577 613,576 621,576 622,575 629,575 630,574 637,574 638,573 645,573 646,572 650,572 651,573 657,573 658,574 665,574 666,575 673,575 674,576 685,576 686,577 695,577 696,578 697,578 698,577 700,577 701,578 715,578 716,579 750,579 751,580 758,580 759,579 761,579 761,578 760,577 760,568 759,567 759,558 758,557 758,555 757,554 757,549 756,548 756,545 755,544 755,540 754,539 754,498 753,497 753,493 752,492 752,490 751,489 751,486 750,485 750,481 749,480 749,472 750,471 750,464 751,463 751,454 752,453 752,447 754,445 757,445 758,444 762,444 763,443 765,443 766,442 771,442 772,441 775,441 776,440 779,440 780,439 784,439 785,438 788,438 789,437 801,437 802,436 825,436 826,435 828,435 829,436 836,436 837,435 893,435 894,434 898,434 899,435 900,434 942,434 943,433 951,433 952,434 956,434 957,433 1012,433 1013,432 1036,432 1037,433 1056,433 1057,434 1068,434 1069,435 1074,435 1075,436 1082,436 1083,435 1084,435 1085,436 1108,436 1109,437 1122,437 1123,438 1127,438 1128,439 1134,439 1135,440 1139,440 1140,441 1144,441 1145,442 1151,442 1152,443 1155,443 1156,444 1163,444 1164,445 1167,445 1168,446 1171,446 1173,448 1173,453 1174,454 1174,466 1175,467 1175,482 1176,483 1176,491 1177,491 1178,490 1180,490 1181,489 1182,489 1183,488 1184,488 1185,487 1186,487 1187,486 1189,486 1190,485 1192,485 1193,484 1196,484 1197,483 1199,483 1200,482 1202,482 1203,481 1209,481 1210,480 1213,480 1214,479 1228,479 1229,478 1248,478 1249,479 1250,479 1252,481 1253,481 1258,486 1259,486 1265,492 1265,493 1266,493 1269,496 1269,497 1272,500 1272,501 1274,503 1274,504 1276,506 1276,507 1278,509 1278,510 1279,511 1279,513 1280,514 1280,515 1281,516 1281,517 1282,518 1282,520 1283,521 1283,525 1284,526 1284,530 1285,531 1285,539 1284,540 1284,548 1283,549 1283,554 1282,555 1282,557 1281,558 1281,559 1280,560 1280,562 1278,564 1278,565 1277,566 1277,567 1276,568 1276,569 1275,570 1275,571 1274,572 1274,573 1273,574 1273,575 1272,576 1272,578 1389,578 1389,0" fill="black" stroke="none"/></svg>